<?xml version="1.0" encoding="UTF-8"?>
<svg id="_レイヤー_1" data-name="レイヤー 1" xmlns="http://www.w3.org/2000/svg" viewBox="0 0 327.02 99.26">
  <defs>
    <style>
      .cls-1 {
        fill: #231815;
      }
    </style>
  </defs>
  <path class="cls-1" d="M81.71,1.47c-3.5,0-6.32,3.18-6.32,7.13s2.82,7.13,6.32,7.13,6.32-3.29,6.32-7.13-2.82-7.13-6.32-7.13Z"/>
  <path class="cls-1" d="M81.41,21.84c-2.9,0-5.15,2.53-5.15,5.79v43.92c0,3.27,2.25,5.9,5.15,5.9s5.15-2.63,5.15-5.9V27.63c0-3.26-2.25-5.79-5.15-5.79Z"/>
  <path class="cls-1" d="M120.1,26.43c0-3.05-1.97-5.37-4.38-5.37-11.16,0-19.32,9.69-19.32,24.64v25.17c0,3.27,2.06,5.9,4.72,5.9s4.72-2.63,4.72-5.9v-25.17c0-9.27,4.21-13.9,9.88-13.9,2.4,0,4.38-2.42,4.38-5.37Z"/>
  <path class="cls-1" d="M281.55,63.95c-5.67,0-9.88-4.63-9.88-13.9l.15-31.37c0-3.27-2.06-5.9-4.72-5.9s-4.72,2.63-4.72,5.9l-.15,31.37c0,14.96,8.16,24.64,19.32,24.64,2.4,0,4.38-2.32,4.38-5.37s-1.98-5.37-4.38-5.37Z"/>
  <path class="cls-1" d="M47.47,35.97c-11.07,0-20.08,9.01-20.08,20.08s9.01,20.08,20.08,20.08c3.97,0,7.79-1.17,11.1-3.38.53,1.96,2.33,3.38,4.4,3.38,2.52,0,4.58-2.05,4.58-4.58v-15.5c0-11.07-9.01-20.08-20.08-20.08ZM58.39,56.05c0,6.02-4.9,10.92-10.92,10.92s-10.92-4.9-10.92-10.92,4.9-10.92,10.92-10.92,10.92,4.9,10.92,10.92Z"/>
  <path class="cls-1" d="M235.48,33.88c-11.07,0-20.08,9.01-20.08,20.08s9.01,20.08,20.08,20.08c3.97,0,7.79-1.17,11.1-3.38.53,1.96,2.33,3.38,4.4,3.38,2.52,0,4.58-2.05,4.58-4.58v-15.5c0-11.07-9.01-20.08-20.08-20.08ZM246.4,53.96c0,6.02-4.9,10.92-10.92,10.92s-10.92-4.9-10.92-10.92,4.9-10.92,10.92-10.92,10.92,4.9,10.92,10.92Z"/>
  <path class="cls-1" d="M31.34,26.33c0-3.05-1.97-5.37-4.38-5.37h-9.79c1.03-6.74,4.81-10.22,9.79-10.22,2.4,0,4.38-2.42,4.38-5.37s-1.97-5.37-4.38-5.37C16.83,0,8.93,8,7.64,20.96h-3.26C1.89,20.96,0,23.28,0,26.33s1.89,5.37,4.38,5.37h3.09v38.02c0,3.26,2.06,5.9,4.72,5.9s4.72-2.63,4.72-5.9V31.7h10.05c2.4,0,4.38-2.42,4.38-5.37Z"/>
  <path class="cls-1" d="M207.08,32.92c2.4,0,4.38-2.42,4.38-5.37s-1.98-5.37-4.38-5.37h-10.05v-11.99c0-3.27-2.06-5.79-4.72-5.79s-4.72,2.53-4.72,5.79v11.99h-3.09c-2.4,0-4.38,2.32-4.38,5.37s1.97,5.37,4.38,5.37h3.09v19.06c0,15.27,8.42,24.85,19.49,24.85,2.4,0,4.38-2.42,4.38-5.48s-1.98-5.37-4.38-5.37c-5.84,0-10.05-4.74-10.05-14.01v-19.06h10.05Z"/>
  <path class="cls-1" d="M306.94,34.84c-11.07,0-20.08,9.01-20.08,20.08s9.01,20.08,20.08,20.08h8.69c2.52,0,4.58-2.05,4.58-4.58s-2.05-4.58-4.58-4.58h-8.69c-6.03,0-10.93-4.9-10.93-10.92s4.9-10.92,10.93-10.92c4.3,0,8.13,2.47,9.92,6.35h-9.25c-2.52,0-4.58,2.05-4.58,4.58s2.05,4.58,4.58,4.58h14.83c2.52,0,4.58-2.05,4.58-4.58,0-11.07-9.01-20.08-20.08-20.08Z"/>
  <path class="cls-1" d="M158.94,39.21c-1.91-1.37-4.56-.93-5.93.98l-11.3,15.75c-1.96-11.3-9.16-18.31-18.49-18.31-2.37,0-4.31,2.33-4.31,5.39s1.94,5.39,4.31,5.39c5.58,0,9.72,4.65,9.72,13.95v5.8l-17.49,24.38c-1.37,1.91-.93,4.56.98,5.93.75.54,1.62.8,2.47.8,1.32,0,2.63-.62,3.46-1.77l37.55-52.35c1.37-1.91.93-4.56-.98-5.93Z"/>
</svg>